%TF.GenerationSoftware,KiCad,Pcbnew,6.0.2+dfsg-1*%
%TF.CreationDate,2022-12-17T17:05:09+00:00*%
%TF.ProjectId,Mouse,4d6f7573-652e-46b6-9963-61645f706362,rev?*%
%TF.SameCoordinates,Original*%
%TF.FileFunction,Soldermask,Top*%
%TF.FilePolarity,Negative*%
%FSLAX46Y46*%
G04 Gerber Fmt 4.6, Leading zero omitted, Abs format (unit mm)*
G04 Created by KiCad (PCBNEW 6.0.2+dfsg-1) date 2022-12-17 17:05:09*
%MOMM*%
%LPD*%
G01*
G04 APERTURE LIST*
%ADD10C,1.600000*%
%ADD11R,1.600000X1.600000*%
%ADD12O,1.600000X1.600000*%
%ADD13R,1.780000X7.620000*%
%ADD14R,1.700000X1.700000*%
%ADD15O,1.700000X1.700000*%
%ADD16C,4.000000*%
G04 APERTURE END LIST*
D10*
%TO.C,C3*%
X137648000Y-138684000D03*
X135148000Y-138684000D03*
%TD*%
D11*
%TO.C,U7*%
X135382000Y-106172000D03*
D12*
X137922000Y-106172000D03*
X140462000Y-106172000D03*
X143002000Y-106172000D03*
X145542000Y-106172000D03*
X148082000Y-106172000D03*
X150622000Y-106172000D03*
X153162000Y-106172000D03*
X153162000Y-98552000D03*
X150622000Y-98552000D03*
X148082000Y-98552000D03*
X145542000Y-98552000D03*
X143002000Y-98552000D03*
X140462000Y-98552000D03*
X137922000Y-98552000D03*
X135382000Y-98552000D03*
%TD*%
D11*
%TO.C,U5*%
X135397000Y-94224000D03*
D12*
X137937000Y-94224000D03*
X140477000Y-94224000D03*
X143017000Y-94224000D03*
X145557000Y-94224000D03*
X148097000Y-94224000D03*
X150637000Y-94224000D03*
X153177000Y-94224000D03*
X153177000Y-86604000D03*
X150637000Y-86604000D03*
X148097000Y-86604000D03*
X145557000Y-86604000D03*
X143017000Y-86604000D03*
X140477000Y-86604000D03*
X137937000Y-86604000D03*
X135397000Y-86604000D03*
%TD*%
D13*
%TO.C,J6*%
X117464000Y-149466500D03*
X120004000Y-149466500D03*
X122544000Y-149466500D03*
X125084000Y-149466500D03*
X130164000Y-149466500D03*
X132704000Y-149466500D03*
X135244000Y-149466500D03*
X137784000Y-149466500D03*
X140324000Y-149466500D03*
X142864000Y-149466500D03*
X145404000Y-149466500D03*
X147944000Y-149466500D03*
X150484000Y-149466500D03*
X153024000Y-149466500D03*
X155564000Y-149466500D03*
X158104000Y-149466500D03*
X160644000Y-149466500D03*
X163184000Y-149466500D03*
X165724000Y-149466500D03*
X168264000Y-149466500D03*
X170804000Y-149466500D03*
X173344000Y-149466500D03*
X175884000Y-149466500D03*
X178424000Y-149466500D03*
X180964000Y-149466500D03*
X183504000Y-149466500D03*
X186044000Y-149466500D03*
%TD*%
D14*
%TO.C,J3*%
X175514000Y-95250000D03*
D15*
X172974000Y-95250000D03*
X170434000Y-95250000D03*
%TD*%
D10*
%TO.C,C1*%
X174986000Y-139192000D03*
X172486000Y-139192000D03*
%TD*%
D16*
%TO.C,J1*%
X189537669Y-86804000D03*
X189537669Y-111804000D03*
D11*
X189237669Y-93764000D03*
D10*
X189237669Y-96534000D03*
X189237669Y-99304000D03*
X189237669Y-102074000D03*
X189237669Y-104844000D03*
X192077669Y-95149000D03*
X192077669Y-97919000D03*
X192077669Y-100689000D03*
X192077669Y-103459000D03*
%TD*%
D14*
%TO.C,J2*%
X175589000Y-91075000D03*
D15*
X173049000Y-91075000D03*
X170509000Y-91075000D03*
%TD*%
D11*
%TO.C,U1*%
X185684000Y-119375000D03*
D12*
X185684000Y-121915000D03*
X185684000Y-124455000D03*
X185684000Y-126995000D03*
X185684000Y-129535000D03*
X185684000Y-132075000D03*
X185684000Y-134615000D03*
X193304000Y-134615000D03*
X193304000Y-132075000D03*
X193304000Y-129535000D03*
X193304000Y-126995000D03*
X193304000Y-124455000D03*
X193304000Y-121915000D03*
X193304000Y-119375000D03*
%TD*%
D14*
%TO.C,J5*%
X174702000Y-105345000D03*
D15*
X172162000Y-105345000D03*
X169622000Y-105345000D03*
%TD*%
D10*
%TO.C,C4*%
X157012000Y-138938000D03*
X159512000Y-138938000D03*
%TD*%
%TO.C,C7*%
X155956000Y-103612000D03*
X155956000Y-101112000D03*
%TD*%
D11*
%TO.C,U8*%
X132344000Y-116855000D03*
D12*
X132344000Y-119395000D03*
X132344000Y-121935000D03*
X132344000Y-124475000D03*
X132344000Y-127015000D03*
X132344000Y-129555000D03*
X132344000Y-132095000D03*
X132344000Y-134635000D03*
X139964000Y-134635000D03*
X139964000Y-132095000D03*
X139964000Y-129555000D03*
X139964000Y-127015000D03*
X139964000Y-124475000D03*
X139964000Y-121935000D03*
X139964000Y-119395000D03*
X139964000Y-116855000D03*
%TD*%
D11*
%TO.C,U9*%
X154432000Y-116840000D03*
D12*
X154432000Y-119380000D03*
X154432000Y-121920000D03*
X154432000Y-124460000D03*
X154432000Y-127000000D03*
X154432000Y-129540000D03*
X154432000Y-132080000D03*
X154432000Y-134620000D03*
X162052000Y-134620000D03*
X162052000Y-132080000D03*
X162052000Y-129540000D03*
X162052000Y-127000000D03*
X162052000Y-124460000D03*
X162052000Y-121920000D03*
X162052000Y-119380000D03*
X162052000Y-116840000D03*
%TD*%
D11*
%TO.C,U2*%
X169936000Y-119375000D03*
D12*
X169936000Y-121915000D03*
X169936000Y-124455000D03*
X169936000Y-126995000D03*
X169936000Y-129535000D03*
X169936000Y-132075000D03*
X169936000Y-134615000D03*
X177556000Y-134615000D03*
X177556000Y-132075000D03*
X177556000Y-129535000D03*
X177556000Y-126995000D03*
X177556000Y-124455000D03*
X177556000Y-121915000D03*
X177556000Y-119375000D03*
%TD*%
D10*
%TO.C,C8*%
X128016000Y-103378000D03*
X128016000Y-100878000D03*
%TD*%
%TO.C,C2*%
X165862000Y-131338000D03*
X165862000Y-133838000D03*
%TD*%
D11*
%TO.C,U3*%
X112024000Y-116855000D03*
D12*
X112024000Y-119395000D03*
X112024000Y-121935000D03*
X112024000Y-124475000D03*
X112024000Y-127015000D03*
X112024000Y-129555000D03*
X112024000Y-132095000D03*
X112024000Y-134635000D03*
X119644000Y-134635000D03*
X119644000Y-132095000D03*
X119644000Y-129555000D03*
X119644000Y-127015000D03*
X119644000Y-124475000D03*
X119644000Y-121935000D03*
X119644000Y-119395000D03*
X119644000Y-116855000D03*
%TD*%
D11*
%TO.C,U4*%
X107272000Y-94208000D03*
D12*
X109812000Y-94208000D03*
X112352000Y-94208000D03*
X114892000Y-94208000D03*
X117432000Y-94208000D03*
X119972000Y-94208000D03*
X122512000Y-94208000D03*
X125052000Y-94208000D03*
X125052000Y-86588000D03*
X122512000Y-86588000D03*
X119972000Y-86588000D03*
X117432000Y-86588000D03*
X114892000Y-86588000D03*
X112352000Y-86588000D03*
X109812000Y-86588000D03*
X107272000Y-86588000D03*
%TD*%
D10*
%TO.C,C9*%
X155956000Y-91928000D03*
X155956000Y-89428000D03*
%TD*%
D11*
%TO.C,U6*%
X107447000Y-106433000D03*
D12*
X109987000Y-106433000D03*
X112527000Y-106433000D03*
X115067000Y-106433000D03*
X117607000Y-106433000D03*
X120147000Y-106433000D03*
X122687000Y-106433000D03*
X125227000Y-106433000D03*
X125227000Y-98813000D03*
X122687000Y-98813000D03*
X120147000Y-98813000D03*
X117607000Y-98813000D03*
X115067000Y-98813000D03*
X112527000Y-98813000D03*
X109987000Y-98813000D03*
X107447000Y-98813000D03*
%TD*%
D10*
%TO.C,C10*%
X104394000Y-103612000D03*
X104394000Y-101112000D03*
%TD*%
%TO.C,C5*%
X191008000Y-139192000D03*
X188508000Y-139192000D03*
%TD*%
%TO.C,C11*%
X103378000Y-91674000D03*
X103378000Y-89174000D03*
%TD*%
%TO.C,C6*%
X114828000Y-138938000D03*
X117328000Y-138938000D03*
%TD*%
D14*
%TO.C,J4*%
X174752000Y-109220000D03*
D15*
X172212000Y-109220000D03*
X169672000Y-109220000D03*
%TD*%
M02*
