M48
; DRILL file {KiCad 6.0.2+dfsg-1} date Sat 17 Dec 2022 17:05:20 GMT
; FORMAT={-:-/ absolute / inch / decimal}
; #@! TF.CreationDate,2022-12-17T17:05:20+00:00
; #@! TF.GenerationSoftware,Kicad,Pcbnew,6.0.2+dfsg-1
; #@! TF.FileFunction,Plated,1,2,PTH
FMAT,2
INCH
; #@! TA.AperFunction,Plated,PTH,ViaDrill
T1C0.0157
; #@! TA.AperFunction,Plated,PTH,ComponentDrill
T2C0.0315
; #@! TA.AperFunction,Plated,PTH,ComponentDrill
T3C0.0394
; #@! TA.AperFunction,Plated,PTH,ComponentDrill
T4C0.1260
%
G90
G05
T1
X4.03Y-4.05
X4.04Y-3.91
X4.11Y-3.31
X4.11Y-4.34
X4.12Y-4.48
X4.32Y-3.81
X4.33Y-4.0
X4.43Y-4.34
X4.45Y-4.27
X4.53Y-4.9
X4.5415Y-5.3685
X4.56Y-4.01
X4.62Y-4.1225
X4.64Y-4.0359
X4.64Y-5.27
X4.65Y-4.5
X4.71Y-4.31
X4.77Y-4.34
X4.77Y-5.61
X4.78Y-5.03
X4.83Y-4.65
X4.84Y-5.37
X4.88Y-4.68
X4.9Y-5.61
X4.9067Y-5.21
X4.9067Y-5.29
X4.9433Y-5.61
X4.96Y-4.52
X4.96Y-5.57
X4.9885Y-5.5397
X5.02Y-4.78
X5.0405Y-5.35
X5.05Y-5.5
X5.0594Y-5.3006
X5.07Y-5.63
X5.1Y-5.2573
X5.1Y-5.35
X5.1Y-5.6
X5.12Y-4.07
X5.12Y-4.91
X5.13Y-4.58
X5.13Y-5.56
X5.14Y-3.61
X5.14Y-5.42
X5.15Y-4.17
X5.15Y-4.26
X5.15Y-4.36
X5.1627Y-5.5382
X5.2Y-5.51
X5.21Y-4.47
X5.2469Y-4.1174
X5.25Y-4.36
X5.26Y-3.6
X5.26Y-4.06
X5.27Y-5.58
X5.27Y-5.65
X5.28Y-4.6985
X5.28Y-4.85
X5.28Y-4.95
X5.29Y-4.3667
X5.29Y-4.4585
X5.29Y-5.04
X5.33Y-4.11
X5.33Y-4.32
X5.33Y-4.58
X5.33Y-4.69
X5.34Y-5.17
X5.36Y-4.26
X5.36Y-4.36
X5.37Y-4.78
X5.37Y-5.0
X5.3759Y-4.86
X5.38Y-3.9375
X5.38Y-4.09
X5.392Y-4.028
X5.4Y-4.4585
X5.41Y-5.6185
X5.45Y-4.33
X5.45Y-4.4585
X5.46Y-4.1
X5.48Y-3.9375
X5.49Y-5.65
X5.52Y-5.46
X5.53Y-4.0713
X5.54Y-5.6133
X5.58Y-3.75
X5.58Y-3.83
X5.58Y-5.4
X5.58Y-5.5267
X5.59Y-4.33
X5.59Y-4.4585
X5.6Y-4.94
X5.61Y-5.12
X5.61Y-5.33
X5.612Y-4.028
X5.64Y-4.4585
X5.64Y-4.82
X5.6423Y-4.2623
X5.65Y-4.7
X5.68Y-3.9375
X5.68Y-4.1
X5.68Y-4.3667
X5.69Y-5.12
X5.7Y-4.57
X5.71Y-5.46
X5.722Y-4.028
X5.74Y-4.1
X5.74Y-4.3667
X5.74Y-4.73
X5.74Y-4.81
X5.75Y-4.97
X5.75Y-5.6448
X5.78Y-4.31
X5.7867Y-3.9375
X5.7877Y-5.1823
X5.8Y-4.74
X5.81Y-4.55
X5.81Y-5.22
X5.85Y-4.33
X5.85Y-5.11
X5.86Y-4.94
X5.8967Y-5.01
X5.91Y-5.47
X5.912Y-4.028
X5.93Y-4.4533
X5.96Y-4.11
X6.0Y-5.01
X6.01Y-5.48
X6.03Y-5.38
X6.06Y-4.3
X6.06Y-5.52
X6.16Y-4.17
X6.18Y-3.84
X6.3233Y-4.76
X6.37Y-3.91
X6.41Y-3.82
X6.42Y-3.53
X6.42Y-3.96
X6.45Y-5.44
X6.51Y-4.17
X6.52Y-4.66
X6.59Y-4.5
X6.61Y-3.92
X6.62Y-5.5
X6.6485Y-4.5
X6.74Y-4.4
X6.74Y-4.62
X6.75Y-4.76
X6.77Y-4.54
X6.89Y-4.4933
X6.89Y-4.95
X6.9Y-4.67
X6.9Y-5.13
X6.93Y-4.88
X6.97Y-5.44
X7.03Y-4.12
X7.04Y-4.6
X7.08Y-4.27
X7.1Y-3.64
X7.1Y-5.16
X7.11Y-3.97
X7.11Y-5.5
X7.12Y-4.97
X7.13Y-4.86
X7.14Y-5.66
X7.17Y-4.62
X7.17Y-5.4
X7.2Y-4.36
X7.21Y-5.57
X7.23Y-5.25
X7.23Y-5.6448
X7.2515Y-5.37
X7.2515Y-5.45
X7.29Y-5.6448
X7.38Y-4.86
X7.39Y-5.02
X7.4Y-4.6
X7.5Y-5.24
X7.51Y-4.25
X7.56Y-4.85
X7.6Y-4.28
X7.62Y-5.57
T2
X4.07Y-3.5108
X4.07Y-3.6092
X4.11Y-3.9808
X4.11Y-4.0792
X4.2233Y-3.409
X4.2233Y-3.709
X4.2302Y-3.8903
X4.2302Y-4.1903
X4.3233Y-3.409
X4.3233Y-3.709
X4.3302Y-3.8903
X4.3302Y-4.1903
X4.4104Y-4.6006
X4.4104Y-4.7006
X4.4104Y-4.8006
X4.4104Y-4.9006
X4.4104Y-5.0006
X4.4104Y-5.1006
X4.4104Y-5.2006
X4.4104Y-5.3006
X4.4233Y-3.409
X4.4233Y-3.709
X4.4302Y-3.8903
X4.4302Y-4.1903
X4.5208Y-5.47
X4.5233Y-3.409
X4.5233Y-3.709
X4.5302Y-3.8903
X4.5302Y-4.1903
X4.6192Y-5.47
X4.6233Y-3.409
X4.6233Y-3.709
X4.6302Y-3.8903
X4.6302Y-4.1903
X4.7104Y-4.6006
X4.7104Y-4.7006
X4.7104Y-4.8006
X4.7104Y-4.9006
X4.7104Y-5.0006
X4.7104Y-5.1006
X4.7104Y-5.2006
X4.7104Y-5.3006
X4.7233Y-3.409
X4.7233Y-3.709
X4.7302Y-3.8903
X4.7302Y-4.1903
X4.8233Y-3.409
X4.8233Y-3.709
X4.8302Y-3.8903
X4.8302Y-4.1903
X4.9233Y-3.409
X4.9233Y-3.709
X4.9302Y-3.8903
X4.9302Y-4.1903
X5.04Y-3.9716
X5.04Y-4.07
X5.2104Y-4.6006
X5.2104Y-4.7006
X5.2104Y-4.8006
X5.2104Y-4.9006
X5.2104Y-5.0006
X5.2104Y-5.1006
X5.2104Y-5.2006
X5.2104Y-5.3006
X5.3208Y-5.46
X5.33Y-3.88
X5.33Y-4.18
X5.3306Y-3.4096
X5.3306Y-3.7096
X5.4192Y-5.46
X5.43Y-3.88
X5.43Y-4.18
X5.4306Y-3.4096
X5.4306Y-3.7096
X5.5104Y-4.6006
X5.5104Y-4.7006
X5.5104Y-4.8006
X5.5104Y-4.9006
X5.5104Y-5.0006
X5.5104Y-5.1006
X5.5104Y-5.2006
X5.5104Y-5.3006
X5.53Y-3.88
X5.53Y-4.18
X5.5306Y-3.4096
X5.5306Y-3.7096
X5.63Y-3.88
X5.63Y-4.18
X5.6306Y-3.4096
X5.6306Y-3.7096
X5.73Y-3.88
X5.73Y-4.18
X5.7306Y-3.4096
X5.7306Y-3.7096
X5.83Y-3.88
X5.83Y-4.18
X5.8306Y-3.4096
X5.8306Y-3.7096
X5.93Y-3.88
X5.93Y-4.18
X5.9306Y-3.4096
X5.9306Y-3.7096
X6.03Y-3.88
X6.03Y-4.18
X6.0306Y-3.4096
X6.0306Y-3.7096
X6.08Y-4.6
X6.08Y-4.7
X6.08Y-4.8
X6.08Y-4.9
X6.08Y-5.0
X6.08Y-5.1
X6.08Y-5.2
X6.08Y-5.3
X6.14Y-3.5208
X6.14Y-3.6192
X6.14Y-3.9808
X6.14Y-4.0792
X6.1816Y-5.47
X6.28Y-5.47
X6.38Y-4.6
X6.38Y-4.7
X6.38Y-4.8
X6.38Y-4.9
X6.38Y-5.0
X6.38Y-5.1
X6.38Y-5.2
X6.38Y-5.3
X6.53Y-5.1708
X6.53Y-5.2692
X6.6904Y-4.6998
X6.6904Y-4.7998
X6.6904Y-4.8998
X6.6904Y-4.9998
X6.6904Y-5.0998
X6.6904Y-5.1998
X6.6904Y-5.2998
X6.7908Y-5.48
X6.8892Y-5.48
X6.9904Y-4.6998
X6.9904Y-4.7998
X6.9904Y-4.8998
X6.9904Y-4.9998
X6.9904Y-5.0998
X6.9904Y-5.1998
X6.9904Y-5.2998
X7.3104Y-4.6998
X7.3104Y-4.7998
X7.3104Y-4.8998
X7.3104Y-4.9998
X7.3104Y-5.0998
X7.3104Y-5.1998
X7.3104Y-5.2998
X7.4216Y-5.48
X7.52Y-5.48
X7.6104Y-4.6998
X7.6104Y-4.7998
X7.6104Y-4.8998
X7.6104Y-4.9998
X7.6104Y-5.0998
X7.6104Y-5.1998
X7.6104Y-5.2998
T3
X6.678Y-4.1474
X6.68Y-4.3
X6.71Y-3.75
X6.713Y-3.5856
X6.778Y-4.1474
X6.78Y-4.3
X6.81Y-3.75
X6.813Y-3.5856
X6.878Y-4.1474
X6.88Y-4.3
X6.91Y-3.75
X6.913Y-3.5856
X7.4503Y-3.6915
X7.4503Y-3.8006
X7.4503Y-3.9096
X7.4503Y-4.0187
X7.4503Y-4.1277
X7.5621Y-3.746
X7.5621Y-3.8551
X7.5621Y-3.9641
X7.5621Y-4.0732
T4
X7.4621Y-3.4175
X7.4621Y-4.4017
T0
M30
